<svg id="Layer_1" enable-background="new 0 0 256 256" height="512" viewBox="0 0 256 256" width="512" xmlns="http://www.w3.org/2000/svg"><g><path d="m133.969 57.22h-11.938c-1.381 0-2.5-1.119-2.5-2.5s1.119-2.5 2.5-2.5h11.938c1.381 0 2.5 1.119 2.5 2.5s-1.119 2.5-2.5 2.5z" fill="#ebe7f2"/><path d="m128 215.805c-37.182 0-67.432-30.25-67.432-67.432s30.25-67.432 67.432-67.432 67.432 30.25 67.432 67.432-30.25 67.432-67.432 67.432zm0-129.864c-34.425 0-62.432 28.007-62.432 62.432s28.007 62.432 62.432 62.432 62.432-28.007 62.432-62.432-28.007-62.432-62.432-62.432z" fill="#65c1d6"/><g fill="#846f75"><path d="m136.469 64.335v-14.021c0-1.381-1.119-2.5-2.5-2.5s-2.5 1.119-2.5 2.5v13.684c-1.152-.047-2.305-.088-3.469-.088s-2.317.041-3.469.088v-13.684c0-1.381-1.119-2.5-2.5-2.5s-2.5 1.119-2.5 2.5v14.021c-42.611 4.262-75.994 40.323-75.994 84.038 0 46.573 37.89 84.463 84.463 84.463s84.463-37.89 84.463-84.463c0-43.715-33.383-79.776-75.994-84.038zm-8.469 163.501c-43.816 0-79.463-35.646-79.463-79.463s35.647-79.463 79.463-79.463 79.463 35.646 79.463 79.463-35.647 79.463-79.463 79.463z"/><path d="m128 88.664c-1.381 0-2.5 1.119-2.5 2.5v9.726c0 1.381 1.119 2.5 2.5 2.5s2.5-1.119 2.5-2.5v-9.726c0-1.381-1.119-2.5-2.5-2.5z"/><path d="m128 193.356c-1.381 0-2.5 1.119-2.5 2.5v9.726c0 1.381 1.119 2.5 2.5 2.5s2.5-1.119 2.5-2.5v-9.726c0-1.38-1.119-2.5-2.5-2.5z"/><path d="m172.983 148.373c0 1.381 1.119 2.5 2.5 2.5h9.726c1.381 0 2.5-1.119 2.5-2.5s-1.119-2.5-2.5-2.5h-9.726c-1.38 0-2.5 1.119-2.5 2.5z"/><path d="m80.517 145.873h-9.726c-1.381 0-2.5 1.119-2.5 2.5s1.119 2.5 2.5 2.5h9.726c1.381 0 2.5-1.119 2.5-2.5s-1.12-2.5-2.5-2.5z"/><path d="m166.686 106.153-6.877 6.877c-.977.977-.977 2.559 0 3.535.488.488 1.128.732 1.768.732s1.279-.244 1.768-.732l6.877-6.877c.977-.977.977-2.559 0-3.535s-2.56-.976-3.536 0z"/><path d="m92.656 180.182-6.877 6.877c-.977.977-.977 2.559 0 3.535.488.488 1.128.732 1.768.732s1.279-.244 1.768-.732l6.877-6.877c.977-.977.977-2.559 0-3.535s-2.559-.977-3.536 0z"/><path d="m163.344 180.182c-.977-.977-2.559-.977-3.535 0s-.977 2.559 0 3.535l6.877 6.877c.488.488 1.128.732 1.768.732s1.279-.244 1.768-.732c.977-.977.977-2.559 0-3.535z"/><path d="m89.314 106.153c-.977-.977-2.559-.977-3.535 0s-.977 2.559 0 3.535l6.877 6.877c.488.488 1.128.732 1.768.732s1.279-.244 1.768-.732c.977-.977.977-2.559 0-3.535z"/><path d="m112.607 44.814h30.785c3.032 0 5.5-2.468 5.5-5.5v-6.004c0-3.032-2.468-5.5-5.5-5.5h-30.785c-3.032 0-5.5 2.468-5.5 5.5v6.005c0 3.032 2.468 5.499 5.5 5.499zm-.5-11.504c0-.275.225-.5.5-.5h30.785c.275 0 .5.225.5.5v6.005c0 .275-.225.5-.5.5h-30.785c-.275 0-.5-.225-.5-.5z"/><path d="m52.566 95.434c.488.488 1.128.732 1.768.732s1.279-.244 1.768-.732c.977-.977.977-2.559 0-3.535l-6.79-6.79c-.975-.975-.975-2.561 0-3.535l6.921-6.921c.975-.975 2.561-.975 3.535 0l6.79 6.79c.977.977 2.559.977 3.535 0s.977-2.559 0-3.535l-6.79-6.79c-2.924-2.924-7.682-2.924-10.605 0l-6.921 6.921c-2.924 2.924-2.924 7.682 0 10.605z"/><path d="m190.82 81.442 6.789-6.789c.974-.977 2.561-.977 3.536-.001l6.921 6.921c.975.975.975 2.561 0 3.535l-6.79 6.79c-.977.977-.977 2.559 0 3.535.488.488 1.128.732 1.768.732s1.279-.244 1.768-.732l6.79-6.79c2.924-2.924 2.924-7.682 0-10.605l-6.921-6.921c-2.923-2.923-7.682-2.925-10.606 0l-6.789 6.79c-.977.977-.977 2.56 0 3.535.976.977 2.558.977 3.534 0z"/></g><path d="m123.293 167.423c-2.004 0-3.888-.78-5.304-2.198l-13.96-13.96c-1.417-1.416-2.197-3.299-2.197-5.303s.78-3.887 2.197-5.304c1.415-1.416 3.299-2.196 5.303-2.196s3.888.78 5.304 2.198l8.657 8.656 17.797-17.796c1.415-1.417 3.299-2.197 5.303-2.197s3.888.78 5.304 2.198c1.416 1.415 2.196 3.298 2.196 5.302s-.78 3.887-2.197 5.304l-23.1 23.099c-1.415 1.417-3.299 2.197-5.303 2.197zm-13.961-23.961c-.668 0-1.295.26-1.767.731-.474.474-.733 1.101-.733 1.769s.26 1.295.732 1.767l13.961 13.962c.945.945 2.591.944 3.534.001l23.101-23.101c.473-.473.732-1.1.732-1.768s-.26-1.295-.732-1.767c-.945-.947-2.591-.945-3.534-.002l-19.565 19.564c-.977.977-2.559.977-3.535 0l-10.426-10.424c-.473-.472-1.1-.732-1.768-.732z" fill="#65c1d6"/></g></svg>